<?xml version="1.0" standalone="no"?>
<!DOCTYPE svg PUBLIC "-//W3C//DTD SVG 20010904//EN"
 "http://www.w3.org/TR/2001/REC-SVG-20010904/DTD/svg10.dtd">
<svg version="1.0" xmlns="http://www.w3.org/2000/svg"
 width="305.000000pt" height="305.000000pt" viewBox="0 0 305.000000 305.000000"
 preserveAspectRatio="xMidYMid meet">
<metadata>
Created by potrace 1.16, written by Peter Selinger 2001-2019
</metadata>
<g transform="translate(0.000000,305.000000) scale(0.100000,-0.100000)"
fill="#000000" stroke="none">
<path d="M1560 2837 c0 -25 -9 -59 -22 -84 -38 -68 -113 -183 -120 -183 -4 0
-8 12 -10 27 -4 36 -38 45 -38 11 0 -13 -25 -72 -55 -132 l-55 -108 0 47 c0
65 -17 56 -63 -36 -65 -127 -64 -241 2 -350 l39 -64 -39 -3 -39 -3 0 -65 0
-64 395 0 396 0 -3 68 -3 67 -37 3 c-32 3 -38 7 -38 27 0 13 11 36 24 52 54
65 59 106 21 177 -14 26 -25 60 -25 75 0 48 -27 107 -79 175 -28 36 -51 69
-51 73 0 4 -24 37 -53 73 -40 50 -58 84 -76 145 -36 116 -71 152 -71 72z m169
-316 c27 -92 3 -205 -71 -333 -27 -48 -56 -106 -63 -130 -13 -39 -14 -27 -14
148 l-1 192 29 55 c16 31 35 81 42 113 l13 57 26 -32 c15 -17 32 -49 39 -70z
m101 -146 c41 -85 22 -155 -85 -311 -25 -36 -45 -72 -45 -80 0 -9 -11 -14 -35
-14 -31 0 -35 3 -35 26 0 33 45 163 81 235 30 60 59 160 59 205 l0 29 21 -25
c11 -14 29 -43 39 -65z m74 -225 c0 -31 -7 -46 -42 -84 -23 -25 -47 -57 -52
-71 -7 -18 -17 -25 -35 -25 -39 0 -32 39 20 112 24 35 54 81 66 102 19 35 22
38 31 21 6 -10 11 -35 12 -55z"/>
<path d="M1195 2666 c-159 -61 -258 -117 -366 -208 -174 -146 -289 -316 -365
-540 -47 -140 -64 -240 -64 -375 0 -168 16 -256 77 -433 112 -320 402 -605
718 -702 137 -43 135 -43 135 -9 0 27 -4 31 -42 41 -241 61 -476 230 -625 448
-95 140 -157 295 -183 457 -14 87 -14 290 -1 375 67 414 344 749 734 885 72
26 77 30 77 56 0 36 -13 36 -95 5z"/>
<path d="M1810 2664 c0 -28 4 -31 75 -53 192 -59 386 -194 515 -356 237 -299
310 -692 199 -1068 -31 -104 -71 -186 -147 -299 -142 -211 -364 -374 -602
-442 -77 -21 -85 -26 -88 -50 -4 -31 0 -31 87 -10 247 62 484 229 643 452 255
359 290 848 88 1252 -92 183 -290 390 -465 485 -93 51 -222 104 -271 112 -32
5 -34 4 -34 -23z"/>
<path d="M1211 1757 c17 -23 45 -61 62 -84 l31 -43 246 0 247 0 61 76 c34 42
62 80 62 85 0 4 -167 8 -370 8 l-371 0 32 -42z"/>
<path d="M1295 1588 c-9 -13 -51 -86 -94 -163 -43 -77 -100 -177 -126 -223
-26 -46 -44 -87 -39 -91 5 -4 32 -26 61 -49 52 -43 144 -157 182 -225 12 -21
29 -49 38 -63 8 -14 37 -86 64 -162 26 -75 61 -174 78 -219 17 -46 33 -112 37
-148 16 -151 24 -41 24 314 l0 379 -33 20 c-92 53 -88 205 5 262 90 55 206
-18 208 -129 0 -51 -35 -115 -75 -137 l-35 -19 0 -377 c0 -208 4 -378 8 -378
5 0 14 39 21 86 7 48 21 110 32 138 11 28 34 103 50 166 52 206 173 408 309
517 l58 47 -28 50 c-15 28 -62 116 -105 196 -42 80 -88 164 -101 188 l-25 42
-249 0 c-247 0 -249 0 -265 -22z"/>
</g>
</svg>
